<svg xmlns="http://www.w3.org/2000/svg" viewBox="0 0 825.1 237.09"><defs><style>.cls-1{fill:#001f6f;}.cls-2{fill:#5b96f4;}.cls-3{fill:none;stroke:#001f6f;stroke-linecap:round;stroke-miterlimit:10;stroke-width:22.32px;}</style></defs><g id="Layer_2" data-name="Layer 2"><g id="Layer_1-2" data-name="Layer 1"><path class="cls-1" d="M23.24,167.45a18.6,18.6,0,0,0,7.05,11.22q5.74,4.58,14.49,4.57a27.67,27.67,0,0,0,11.7-2.47q5.39-2.47,7.57-5l2.35-2.51L78,188.18l-1.5,1.5a43.54,43.54,0,0,1-4.33,3.44,51.88,51.88,0,0,1-7,4.33,45.26,45.26,0,0,1-9.68,3.36,51.51,51.51,0,0,1-12.27,1.46,41.92,41.92,0,0,1-30.53-12.43,41.75,41.75,0,0,1-.16-59.68,40.84,40.84,0,0,1,29.88-12.43q17.42,0,29,11.62t11.58,29l-.81,9.07Zm7-26.48a21.91,21.91,0,0,0-7,10.77H60.57a18.48,18.48,0,0,0-6.19-10.69,17.82,17.82,0,0,0-12-4.21A18.34,18.34,0,0,0,30.25,141Z"/><path class="cls-1" d="M141.89,120.64q6,2.92,8.54,5.67l2.51,3V84.53h22.35V200.65H152.94v-10a13.71,13.71,0,0,1-1,1.26c-.46.51-1.43,1.43-2.92,2.75a32.79,32.79,0,0,1-4.82,3.56,27.91,27.91,0,0,1-6.72,2.8,30.21,30.21,0,0,1-8.58,1.21q-15.79,0-27.41-12.27T89.86,160q0-17.73,11.62-30t27.41-12.27A29.57,29.57,0,0,1,141.89,120.64Zm5.22,55.47q5.83-6.31,5.83-16.11t-5.83-16.07a18.95,18.95,0,0,0-28.18,0Q113.1,150.2,113.1,160t5.83,16.11a18.87,18.87,0,0,0,28.18,0Z"/><path class="cls-1" d="M247.74,192.39a36.6,36.6,0,0,1-2.76,2.8q-1.78,1.65-7.81,4.37a30.54,30.54,0,0,1-12.67,2.71q-13.94,0-22.72-9.35T193,168V119.35h22.35v46.48a15.19,15.19,0,0,0,4.5,11.26,15.38,15.38,0,0,0,11.3,4.45q7.61,0,12.1-4.94t4.5-14.09V119.35h22.35v81.3H247.74Z"/><path class="cls-2" d="M362.4,131.61q11.58,12.27,11.58,30t-11.62,30Q350.74,203.89,335,203.89A30.07,30.07,0,0,1,322,201q-6.08-2.87-8.58-5.71l-2.43-3v10H288.55V86.15H311v44.78a11,11,0,0,1,1-1.22c.43-.48,1.39-1.39,2.88-2.71a33.24,33.24,0,0,1,4.81-3.56,29.19,29.19,0,0,1,6.77-2.84,29.61,29.61,0,0,1,8.62-1.25Q350.83,119.35,362.4,131.61ZM345,177.73q5.79-6.31,5.79-16.11T345,145.54a19,19,0,0,0-28.18,0Q311,151.82,311,161.62t5.79,16.11a18.87,18.87,0,0,0,28.18,0Z"/><path class="cls-2" d="M434.77,142.59a27.17,27.17,0,0,0-7.45-.89q-8.83,0-14,5.58t-5.14,16v39H385.85V121h22.36v10c.64-.76,1.56-1.74,2.75-3s3.79-2.82,7.81-4.82a28.24,28.24,0,0,1,12.68-3h3.32Z"/><path class="cls-2" d="M463.81,106.79q-3.57,3.4-9.72,3.41a12.12,12.12,0,0,1-9-3.41,12.26,12.26,0,0,1-3.36-9,11.69,11.69,0,0,1,12.39-12.43q6.15,0,9.72,3.4a11.9,11.9,0,0,1,3.56,9A11.89,11.89,0,0,1,463.81,106.79Zm1.94,95.48H443.32V121h22.43Z"/><path class="cls-2" d="M530.46,122.26c4,1.94,6.87,3.83,8.55,5.67l2.51,3V86.15h22.35V202.27H541.52v-10a12.56,12.56,0,0,1-1,1.25c-.46.52-1.43,1.43-2.92,2.76a32.79,32.79,0,0,1-4.82,3.56,28.33,28.33,0,0,1-6.72,2.79,30.21,30.21,0,0,1-8.58,1.22q-15.8,0-27.41-12.27t-11.62-30q0-17.75,11.62-30t27.41-12.26A29.5,29.5,0,0,1,530.46,122.26Zm5.23,55.47q5.84-6.31,5.83-16.11t-5.83-16.08a19,19,0,0,0-28.18,0q-5.83,6.28-5.83,16.08t5.83,16.11a18.87,18.87,0,0,0,28.18,0Z"/><path class="cls-2" d="M637.13,189a12.94,12.94,0,0,1-1,1.25c-.46.52-1.43,1.43-2.91,2.76a34.69,34.69,0,0,1-4.78,3.56,28.37,28.37,0,0,1-6.72,2.83,29.67,29.67,0,0,1-8.62,1.26q-13.94,0-25.23-12.11a41.7,41.7,0,0,1,0-57.09q11.29-12.1,25.23-12.1a29.76,29.76,0,0,1,13,2.91q6.07,2.91,8.51,5.67l2.51,3V121h22.35v74.66q0,17.56-12.27,29.52T616.4,237.09A48.77,48.77,0,0,1,603,235.27a46.41,46.41,0,0,1-10.6-4.29,56.93,56.93,0,0,1-7.37-5.07,26.05,26.05,0,0,1-4.46-4.37l-1.54-1.86,14.09-13.28c.54.75,1.37,1.75,2.47,3s3.61,2.85,7.5,4.82a27.17,27.17,0,0,0,12.47,3q10,0,15.75-5.79t5.79-15.75Zm-32-14.74a17.05,17.05,0,0,0,13,5.67,18.11,18.11,0,0,0,13.36-5.83,20.29,20.29,0,0,0,0-28.22,18.18,18.18,0,0,0-13.36-5.79,17.11,17.11,0,0,0-13,5.62,21.84,21.84,0,0,0,0,28.55Z"/><path class="cls-2" d="M694.59,169.07a18.62,18.62,0,0,0,7,11.21q5.75,4.58,14.49,4.58a27.83,27.83,0,0,0,11.7-2.47q5.38-2.47,7.57-5l2.35-2.51,11.58,14.9-1.5,1.5a43.54,43.54,0,0,1-4.33,3.44,51.88,51.88,0,0,1-7,4.33,45.26,45.26,0,0,1-9.68,3.36,51.51,51.51,0,0,1-12.27,1.46A42,42,0,0,1,684,191.46a41.75,41.75,0,0,1-.16-59.68,40.84,40.84,0,0,1,29.88-12.43q17.41,0,29,11.62t11.58,29l-.81,9.07Zm7-26.48a21.91,21.91,0,0,0-7,10.77h37.33a18.48,18.48,0,0,0-6.19-10.69,17.82,17.82,0,0,0-12-4.21A18.29,18.29,0,0,0,701.6,142.59Z"/><path class="cls-2" d="M811,145a18.27,18.27,0,0,0-1.58-1.78,19.35,19.35,0,0,0-4.58-3,15.11,15.11,0,0,0-7.12-1.82,12,12,0,0,0-7.29,2,5.67,5.67,0,0,0-2.67,4.58c0,2.1,1.27,3.86,3.8,5.26a48.62,48.62,0,0,0,9.28,3.77c3.64,1.1,7.32,2.43,11,4a22.06,22.06,0,0,1,9.39,7.45,20.84,20.84,0,0,1,3.81,12.76,23.12,23.12,0,0,1-8.63,18.3q-8.61,7.36-23.68,7.37a48.33,48.33,0,0,1-12.31-1.54,36.82,36.82,0,0,1-9.47-3.73,59.28,59.28,0,0,1-6.36-4.33,27.61,27.61,0,0,1-3.93-3.6l-1.13-1.7,12.47-12.39a20.22,20.22,0,0,0,2.06,2.47,28,28,0,0,0,6,4.05,18.9,18.9,0,0,0,9.39,2.55q5.34,0,8.06-2.07a6.46,6.46,0,0,0,2.71-5.38c0-2.22-1.27-4.06-3.81-5.55a43.13,43.13,0,0,0-9.39-3.89,99.47,99.47,0,0,1-11-4,23.15,23.15,0,0,1-9.28-7.29,19.89,19.89,0,0,1-3.8-12.47q0-9.81,9.11-17.74t22.39-7.93a37.79,37.79,0,0,1,15.51,3.15q7.08,3.16,9.83,6.16l2.84,3.16Z"/><path class="cls-3" d="M164.13,104.85V79A68,68,0,0,1,232,11.16h0A68,68,0,0,1,299.81,79V93"/></g></g></svg>